<mxfile host="app.diagrams.net" agent="Mozilla/5.0 (X11; Linux x86_64; rv:133.0) Gecko/20100101 Firefox/133.0" version="26.0.5">
  <diagram name="Page-1" id="K-NWxVVRC7y-HQSjhEDL">
    <mxGraphModel dx="659" dy="946" grid="1" gridSize="10" guides="1" tooltips="1" connect="1" arrows="1" fold="1" page="1" pageScale="1" pageWidth="1169" pageHeight="827" math="0" shadow="0">
      <root>
        <mxCell id="0" />
        <mxCell id="1" parent="0" />
        <mxCell id="FTfx0omEr8FtCvGHJ9RH-13" style="edgeStyle=orthogonalEdgeStyle;rounded=0;orthogonalLoop=1;jettySize=auto;html=1;exitX=0.5;exitY=1;exitDx=0;exitDy=0;entryX=0.5;entryY=0;entryDx=0;entryDy=0;curved=1;" edge="1" parent="1" source="FTfx0omEr8FtCvGHJ9RH-31" target="FTfx0omEr8FtCvGHJ9RH-6">
          <mxGeometry relative="1" as="geometry" />
        </mxCell>
        <mxCell id="FTfx0omEr8FtCvGHJ9RH-22" value="1,N" style="edgeLabel;html=1;align=center;verticalAlign=middle;resizable=0;points=[];" vertex="1" connectable="0" parent="FTfx0omEr8FtCvGHJ9RH-13">
          <mxGeometry x="0.7696" relative="1" as="geometry">
            <mxPoint as="offset" />
          </mxGeometry>
        </mxCell>
        <mxCell id="FTfx0omEr8FtCvGHJ9RH-17" style="edgeStyle=orthogonalEdgeStyle;rounded=0;orthogonalLoop=1;jettySize=auto;html=1;exitX=0.5;exitY=1;exitDx=0;exitDy=0;entryX=0.75;entryY=0;entryDx=0;entryDy=0;curved=1;" edge="1" parent="1" source="FTfx0omEr8FtCvGHJ9RH-36" target="FTfx0omEr8FtCvGHJ9RH-10">
          <mxGeometry relative="1" as="geometry" />
        </mxCell>
        <mxCell id="FTfx0omEr8FtCvGHJ9RH-24" value="1,1" style="edgeLabel;html=1;align=center;verticalAlign=middle;resizable=0;points=[];" vertex="1" connectable="0" parent="FTfx0omEr8FtCvGHJ9RH-17">
          <mxGeometry x="0.8758" y="-1" relative="1" as="geometry">
            <mxPoint as="offset" />
          </mxGeometry>
        </mxCell>
        <mxCell id="FTfx0omEr8FtCvGHJ9RH-1" value="&lt;div&gt;Compagnia&lt;/div&gt;" style="whiteSpace=wrap;html=1;align=center;" vertex="1" parent="1">
          <mxGeometry x="350" y="240" width="100" height="40" as="geometry" />
        </mxCell>
        <mxCell id="FTfx0omEr8FtCvGHJ9RH-14" style="edgeStyle=orthogonalEdgeStyle;rounded=0;orthogonalLoop=1;jettySize=auto;html=1;exitX=0.5;exitY=1;exitDx=0;exitDy=0;entryX=0.5;entryY=0;entryDx=0;entryDy=0;curved=1;" edge="1" parent="1" source="FTfx0omEr8FtCvGHJ9RH-54" target="FTfx0omEr8FtCvGHJ9RH-7">
          <mxGeometry relative="1" as="geometry" />
        </mxCell>
        <mxCell id="FTfx0omEr8FtCvGHJ9RH-53" value="0,N" style="edgeLabel;html=1;align=center;verticalAlign=middle;resizable=0;points=[];" vertex="1" connectable="0" parent="FTfx0omEr8FtCvGHJ9RH-14">
          <mxGeometry x="0.8125" y="-1" relative="1" as="geometry">
            <mxPoint as="offset" />
          </mxGeometry>
        </mxCell>
        <mxCell id="FTfx0omEr8FtCvGHJ9RH-15" style="edgeStyle=orthogonalEdgeStyle;rounded=0;orthogonalLoop=1;jettySize=auto;html=1;exitX=0.75;exitY=1;exitDx=0;exitDy=0;entryX=0.5;entryY=0;entryDx=0;entryDy=0;curved=1;" edge="1" parent="1" source="FTfx0omEr8FtCvGHJ9RH-6" target="FTfx0omEr8FtCvGHJ9RH-10">
          <mxGeometry relative="1" as="geometry" />
        </mxCell>
        <mxCell id="FTfx0omEr8FtCvGHJ9RH-25" value="1,N" style="edgeLabel;html=1;align=center;verticalAlign=middle;resizable=0;points=[];" vertex="1" connectable="0" parent="FTfx0omEr8FtCvGHJ9RH-15">
          <mxGeometry x="0.8212" relative="1" as="geometry">
            <mxPoint as="offset" />
          </mxGeometry>
        </mxCell>
        <mxCell id="FTfx0omEr8FtCvGHJ9RH-26" value="1,1" style="edgeLabel;html=1;align=center;verticalAlign=middle;resizable=0;points=[];" vertex="1" connectable="0" parent="FTfx0omEr8FtCvGHJ9RH-15">
          <mxGeometry x="-0.8175" y="-1" relative="1" as="geometry">
            <mxPoint as="offset" />
          </mxGeometry>
        </mxCell>
        <mxCell id="FTfx0omEr8FtCvGHJ9RH-6" value="&lt;div&gt;Volo&lt;/div&gt;" style="whiteSpace=wrap;html=1;align=center;" vertex="1" parent="1">
          <mxGeometry x="200" y="440" width="100" height="40" as="geometry" />
        </mxCell>
        <mxCell id="FTfx0omEr8FtCvGHJ9RH-18" style="edgeStyle=orthogonalEdgeStyle;rounded=0;orthogonalLoop=1;jettySize=auto;html=1;exitX=0.5;exitY=1;exitDx=0;exitDy=0;entryX=0;entryY=0.5;entryDx=0;entryDy=0;curved=1;" edge="1" parent="1" source="FTfx0omEr8FtCvGHJ9RH-49" target="FTfx0omEr8FtCvGHJ9RH-8">
          <mxGeometry relative="1" as="geometry" />
        </mxCell>
        <mxCell id="FTfx0omEr8FtCvGHJ9RH-51" value="&lt;div&gt;1,1&lt;/div&gt;" style="edgeLabel;html=1;align=center;verticalAlign=middle;resizable=0;points=[];" vertex="1" connectable="0" parent="FTfx0omEr8FtCvGHJ9RH-18">
          <mxGeometry x="0.1826" relative="1" as="geometry">
            <mxPoint as="offset" />
          </mxGeometry>
        </mxCell>
        <mxCell id="FTfx0omEr8FtCvGHJ9RH-7" value="Aeroporto" style="whiteSpace=wrap;html=1;align=center;" vertex="1" parent="1">
          <mxGeometry x="120" y="600" width="100" height="40" as="geometry" />
        </mxCell>
        <mxCell id="FTfx0omEr8FtCvGHJ9RH-8" value="Servizio" style="whiteSpace=wrap;html=1;align=center;" vertex="1" parent="1">
          <mxGeometry x="240" y="710" width="100" height="40" as="geometry" />
        </mxCell>
        <mxCell id="FTfx0omEr8FtCvGHJ9RH-19" style="edgeStyle=orthogonalEdgeStyle;rounded=0;orthogonalLoop=1;jettySize=auto;html=1;exitX=0;exitY=0.5;exitDx=0;exitDy=0;entryX=1;entryY=0.5;entryDx=0;entryDy=0;curved=1;" edge="1" parent="1" source="FTfx0omEr8FtCvGHJ9RH-45" target="FTfx0omEr8FtCvGHJ9RH-8">
          <mxGeometry relative="1" as="geometry" />
        </mxCell>
        <mxCell id="FTfx0omEr8FtCvGHJ9RH-44" value="1,N" style="edgeLabel;html=1;align=center;verticalAlign=middle;resizable=0;points=[];" vertex="1" connectable="0" parent="FTfx0omEr8FtCvGHJ9RH-19">
          <mxGeometry x="0.8961" y="-1" relative="1" as="geometry">
            <mxPoint as="offset" />
          </mxGeometry>
        </mxCell>
        <mxCell id="FTfx0omEr8FtCvGHJ9RH-9" value="Persona" style="whiteSpace=wrap;html=1;align=center;" vertex="1" parent="1">
          <mxGeometry x="590" y="660" width="100" height="40" as="geometry" />
        </mxCell>
        <mxCell id="FTfx0omEr8FtCvGHJ9RH-10" value="Aereo" style="whiteSpace=wrap;html=1;align=center;" vertex="1" parent="1">
          <mxGeometry x="340" y="630" width="100" height="40" as="geometry" />
        </mxCell>
        <mxCell id="FTfx0omEr8FtCvGHJ9RH-16" style="edgeStyle=orthogonalEdgeStyle;rounded=0;orthogonalLoop=1;jettySize=auto;html=1;exitX=1;exitY=0.5;exitDx=0;exitDy=0;entryX=0.58;entryY=-0.05;entryDx=0;entryDy=0;entryPerimeter=0;curved=1;" edge="1" parent="1" source="FTfx0omEr8FtCvGHJ9RH-40" target="FTfx0omEr8FtCvGHJ9RH-9">
          <mxGeometry relative="1" as="geometry" />
        </mxCell>
        <mxCell id="FTfx0omEr8FtCvGHJ9RH-43" value="1,N" style="edgeLabel;html=1;align=center;verticalAlign=middle;resizable=0;points=[];" vertex="1" connectable="0" parent="FTfx0omEr8FtCvGHJ9RH-16">
          <mxGeometry x="0.76" y="-1" relative="1" as="geometry">
            <mxPoint as="offset" />
          </mxGeometry>
        </mxCell>
        <mxCell id="FTfx0omEr8FtCvGHJ9RH-29" value="" style="edgeStyle=orthogonalEdgeStyle;rounded=0;orthogonalLoop=1;jettySize=auto;html=1;exitX=0.5;exitY=1;exitDx=0;exitDy=0;entryX=0.5;entryY=0;entryDx=0;entryDy=0;curved=1;" edge="1" parent="1" source="FTfx0omEr8FtCvGHJ9RH-1" target="FTfx0omEr8FtCvGHJ9RH-31">
          <mxGeometry relative="1" as="geometry">
            <mxPoint x="330" y="370" as="sourcePoint" />
            <mxPoint x="270" y="470" as="targetPoint" />
          </mxGeometry>
        </mxCell>
        <mxCell id="FTfx0omEr8FtCvGHJ9RH-32" value="1,1" style="edgeLabel;html=1;align=center;verticalAlign=middle;resizable=0;points=[];" vertex="1" connectable="0" parent="FTfx0omEr8FtCvGHJ9RH-29">
          <mxGeometry x="-0.8429" y="-3" relative="1" as="geometry">
            <mxPoint as="offset" />
          </mxGeometry>
        </mxCell>
        <mxCell id="FTfx0omEr8FtCvGHJ9RH-31" value="organizza" style="shape=rhombus;perimeter=rhombusPerimeter;whiteSpace=wrap;html=1;align=center;" vertex="1" parent="1">
          <mxGeometry x="250" y="330" width="120" height="60" as="geometry" />
        </mxCell>
        <mxCell id="FTfx0omEr8FtCvGHJ9RH-37" value="" style="edgeStyle=orthogonalEdgeStyle;rounded=0;orthogonalLoop=1;jettySize=auto;html=1;exitX=0.75;exitY=1;exitDx=0;exitDy=0;curved=1;" edge="1" parent="1" source="FTfx0omEr8FtCvGHJ9RH-1" target="FTfx0omEr8FtCvGHJ9RH-36">
          <mxGeometry relative="1" as="geometry">
            <mxPoint x="425" y="280" as="sourcePoint" />
            <mxPoint x="395" y="590" as="targetPoint" />
          </mxGeometry>
        </mxCell>
        <mxCell id="FTfx0omEr8FtCvGHJ9RH-38" value="0,N" style="edgeLabel;html=1;align=center;verticalAlign=middle;resizable=0;points=[];" vertex="1" connectable="0" parent="FTfx0omEr8FtCvGHJ9RH-37">
          <mxGeometry x="-0.8956" y="-1" relative="1" as="geometry">
            <mxPoint as="offset" />
          </mxGeometry>
        </mxCell>
        <mxCell id="FTfx0omEr8FtCvGHJ9RH-36" value="possiede" style="shape=rhombus;perimeter=rhombusPerimeter;whiteSpace=wrap;html=1;align=center;" vertex="1" parent="1">
          <mxGeometry x="440" y="370" width="120" height="60" as="geometry" />
        </mxCell>
        <mxCell id="FTfx0omEr8FtCvGHJ9RH-41" value="" style="edgeStyle=orthogonalEdgeStyle;rounded=0;orthogonalLoop=1;jettySize=auto;html=1;exitX=1;exitY=0.5;exitDx=0;exitDy=0;curved=1;" edge="1" parent="1" source="FTfx0omEr8FtCvGHJ9RH-6" target="FTfx0omEr8FtCvGHJ9RH-40">
          <mxGeometry relative="1" as="geometry">
            <mxPoint x="320" y="490" as="sourcePoint" />
            <mxPoint x="578" y="588" as="targetPoint" />
          </mxGeometry>
        </mxCell>
        <mxCell id="FTfx0omEr8FtCvGHJ9RH-42" value="0,N" style="edgeLabel;html=1;align=center;verticalAlign=middle;resizable=0;points=[];" vertex="1" connectable="0" parent="FTfx0omEr8FtCvGHJ9RH-41">
          <mxGeometry x="-0.9105" y="-2" relative="1" as="geometry">
            <mxPoint as="offset" />
          </mxGeometry>
        </mxCell>
        <mxCell id="FTfx0omEr8FtCvGHJ9RH-40" value="trasporta/lavora" style="shape=rhombus;perimeter=rhombusPerimeter;whiteSpace=wrap;html=1;align=center;" vertex="1" parent="1">
          <mxGeometry x="525" y="510" width="120" height="60" as="geometry" />
        </mxCell>
        <mxCell id="FTfx0omEr8FtCvGHJ9RH-46" value="" style="edgeStyle=orthogonalEdgeStyle;rounded=0;orthogonalLoop=1;jettySize=auto;html=1;exitX=0.5;exitY=1;exitDx=0;exitDy=0;entryX=1;entryY=0.5;entryDx=0;entryDy=0;curved=1;" edge="1" parent="1" source="FTfx0omEr8FtCvGHJ9RH-9" target="FTfx0omEr8FtCvGHJ9RH-45">
          <mxGeometry relative="1" as="geometry">
            <mxPoint x="640" y="700" as="sourcePoint" />
            <mxPoint x="340" y="730" as="targetPoint" />
          </mxGeometry>
        </mxCell>
        <mxCell id="FTfx0omEr8FtCvGHJ9RH-48" value="0,N" style="edgeLabel;html=1;align=center;verticalAlign=middle;resizable=0;points=[];" vertex="1" connectable="0" parent="FTfx0omEr8FtCvGHJ9RH-46">
          <mxGeometry x="-0.7066" y="-8" relative="1" as="geometry">
            <mxPoint as="offset" />
          </mxGeometry>
        </mxCell>
        <mxCell id="FTfx0omEr8FtCvGHJ9RH-45" value="Lavora" style="shape=rhombus;perimeter=rhombusPerimeter;whiteSpace=wrap;html=1;align=center;" vertex="1" parent="1">
          <mxGeometry x="440" y="700" width="120" height="60" as="geometry" />
        </mxCell>
        <mxCell id="FTfx0omEr8FtCvGHJ9RH-50" value="" style="edgeStyle=orthogonalEdgeStyle;rounded=0;orthogonalLoop=1;jettySize=auto;html=1;exitX=0.5;exitY=1;exitDx=0;exitDy=0;entryX=0.5;entryY=0;entryDx=0;entryDy=0;curved=1;" edge="1" parent="1" source="FTfx0omEr8FtCvGHJ9RH-7" target="FTfx0omEr8FtCvGHJ9RH-49">
          <mxGeometry relative="1" as="geometry">
            <mxPoint x="190" y="630" as="sourcePoint" />
            <mxPoint x="240" y="730" as="targetPoint" />
          </mxGeometry>
        </mxCell>
        <mxCell id="FTfx0omEr8FtCvGHJ9RH-52" value="0,N" style="edgeLabel;html=1;align=center;verticalAlign=middle;resizable=0;points=[];" vertex="1" connectable="0" parent="FTfx0omEr8FtCvGHJ9RH-50">
          <mxGeometry x="-0.6429" y="-1" relative="1" as="geometry">
            <mxPoint as="offset" />
          </mxGeometry>
        </mxCell>
        <mxCell id="FTfx0omEr8FtCvGHJ9RH-49" value="Fornisce" style="shape=rhombus;perimeter=rhombusPerimeter;whiteSpace=wrap;html=1;align=center;" vertex="1" parent="1">
          <mxGeometry x="110" y="670" width="120" height="60" as="geometry" />
        </mxCell>
        <mxCell id="FTfx0omEr8FtCvGHJ9RH-55" value="" style="edgeStyle=orthogonalEdgeStyle;rounded=0;orthogonalLoop=1;jettySize=auto;html=1;exitX=0.5;exitY=1;exitDx=0;exitDy=0;entryX=0.5;entryY=0;entryDx=0;entryDy=0;curved=1;" edge="1" parent="1" source="FTfx0omEr8FtCvGHJ9RH-6" target="FTfx0omEr8FtCvGHJ9RH-54">
          <mxGeometry relative="1" as="geometry">
            <mxPoint x="270" y="510" as="sourcePoint" />
            <mxPoint x="190" y="590" as="targetPoint" />
          </mxGeometry>
        </mxCell>
        <mxCell id="FTfx0omEr8FtCvGHJ9RH-56" value="1,1" style="edgeLabel;html=1;align=center;verticalAlign=middle;resizable=0;points=[];" vertex="1" connectable="0" parent="FTfx0omEr8FtCvGHJ9RH-55">
          <mxGeometry x="-0.8232" y="-1" relative="1" as="geometry">
            <mxPoint as="offset" />
          </mxGeometry>
        </mxCell>
        <mxCell id="FTfx0omEr8FtCvGHJ9RH-54" value="Parte" style="shape=rhombus;perimeter=rhombusPerimeter;whiteSpace=wrap;html=1;align=center;" vertex="1" parent="1">
          <mxGeometry x="190" y="530" width="70" height="40" as="geometry" />
        </mxCell>
        <mxCell id="FTfx0omEr8FtCvGHJ9RH-60" style="edgeStyle=orthogonalEdgeStyle;rounded=0;orthogonalLoop=1;jettySize=auto;html=1;exitX=0.5;exitY=1;exitDx=0;exitDy=0;curved=1;" edge="1" parent="1" source="FTfx0omEr8FtCvGHJ9RH-59" target="FTfx0omEr8FtCvGHJ9RH-7">
          <mxGeometry relative="1" as="geometry" />
        </mxCell>
        <mxCell id="FTfx0omEr8FtCvGHJ9RH-59" value="Arriva" style="shape=rhombus;perimeter=rhombusPerimeter;whiteSpace=wrap;html=1;align=center;" vertex="1" parent="1">
          <mxGeometry x="100" y="530" width="70" height="40" as="geometry" />
        </mxCell>
        <mxCell id="FTfx0omEr8FtCvGHJ9RH-61" style="edgeStyle=orthogonalEdgeStyle;rounded=0;orthogonalLoop=1;jettySize=auto;html=1;exitX=0.5;exitY=0;exitDx=0;exitDy=0;entryX=0.409;entryY=0.989;entryDx=0;entryDy=0;entryPerimeter=0;curved=1;" edge="1" parent="1" source="FTfx0omEr8FtCvGHJ9RH-59" target="FTfx0omEr8FtCvGHJ9RH-6">
          <mxGeometry relative="1" as="geometry" />
        </mxCell>
      </root>
    </mxGraphModel>
  </diagram>
</mxfile>
